<svg xmlns="http://www.w3.org/2000/svg" viewBox="0 0 1024 500"><path fill="#041c7c" stroke="#041c7c" d="M0 250.001v250.001l512.25-.251 512.25-.251.004-250c.003-137.5-.111-185.597-.253-106.882l-.258 143.117-16.746 4.054c-45.978 11.129-90.013 12.786-135.694 5.105C750.628 274.562 656.619 187.108 641.629 81c-3.699-26.18-2.573-56.611 2.893-78.25l.695-2.75H0v250.001m.492.499c0 137.5.116 193.601.258 124.67.142-68.932.142-181.432 0-250C.608 56.601.492 113 .492 250.5" fill-rule="evenodd"/><path fill="#041c7c" stroke="#041c7c" d="M0 250.001v250.001l512.25-.251 512.25-.251.004-250c.003-137.5-.111-185.606-.253-106.903l-.258 143.097-7.246 2.1c-56.326 16.325-123.438 16-181.366-.878C701.883 248.019 619.769 129.564 642.901 9.25L644.679 0H0v250.001m.492.499c0 137.5.116 193.601.258 124.67.142-68.932.142-181.432 0-250C.608 56.601.492 113 .492 250.5" fill-rule="evenodd"/><path fill="#130454" stroke="#130454" d="M0 250.001v250.001l512.25-.251 512.25-.251.004-250c.003-137.5-.111-185.556-.253-106.791l-.258 143.208-6.746 2.004c-44.024 13.073-100.984 15.746-149.193 7.002C746.409 272.86 654.078 184.455 640.454 77c-2.234-17.625-1.543-48.161 1.461-64.5 1.112-6.05 2.036-11.337 2.054-11.75C643.986.337 499.1 0 322 0H0v250.001m.492.499c0 137.5.116 193.601.258 124.67.142-68.932.142-181.432 0-250C.608 56.601.492 113 .492 250.5" fill-rule="evenodd"/></svg>