<svg
  width="100"
  height="100"
  viewBox="0 0 100 100"
  xmlns="http://www.w3.org/2000/svg"
>
  <!-- Brain -->
  <path
    d="M50,10 C61.3,10 70,18.7 70,30 C70,35.4 65.4,40 60,40 C60,40 50,40 50,40 C50,40 40,40 40,40 C34.6,40 30,35.4 30,30 C30,18.7 38.7,10 50,10"
    fill="#FF9800"
  />
  <!-- Lightbulb (Idea) -->
  <path
    d="M50,5 C52.8,5 55,7.2 55,10 C55,10.7 55,11.4 54.9,12.1 L53.6,33.9 C54.5,35.8 54.1,38 52.8,39.3 C52,40.1 50.9,40.5 50,40.5 C49.1,40.5 48,40.1 47.2,39.3 C45.9,38 45.5,35.8 46.4,33.9 L45.1,12.1 C45,11.4 45,10.7 45,10 C45,7.2 47.2,5 50,5 Z M48,45 L52,45 L53,51 L47,51 L48,45 Z M50,80 C45.6,80 42,76.4 42,72 L42,65 L58,65 L58,72 C58,76.4 54.4,80 50,80 Z"
    fill="#FFEB3B"
  />
</svg>
